<svg width="717" height="1186" viewBox="0 0 1015.5 3182.5" xmlns="http://www.w3.org/2000/svg" xmlns:xlink="http://www.w3.org/1999/xlink" xml:space="preserve" overflow="hidden">
    <g transform="translate(-388 -709)">
        <path d="M0 795 0 0 263 795Z" stroke="#042433" stroke-width="6.875" stroke-miterlimit="8" fill="#FFC000" fill-rule="evenodd" transform="matrix(-1 0 0 1 735.5 1096.5)"/>
        <path d="M751.5 1891.5 751.5 1096.5 1015.5 1891.5Z" stroke="#042433" stroke-width="6.875" stroke-miterlimit="8" fill="#FFC000" fill-rule="evenodd"/>
        <path d="M834 766.5C912.701 766.5 976.5 842.612 976.5 936.5 976.5 1030.39 912.701 1106.5 834 1106.5L834 1035.25C873.351 1035.25 905.25 991.038 905.25 936.5 905.25 881.962 873.351 837.75 834 837.75Z" stroke="#042433" stroke-width="6.875" stroke-miterlimit="8" fill="#FFC000" fill-rule="evenodd"/>
        <path d="M662 1106.5C583.299 1106.5 519.5 1030.39 519.5 936.5 519.5 842.612 583.299 766.5 662 766.5L662 837.75C622.649 837.75 590.75 881.962 590.75 936.5 590.75 991.038 622.649 1035.25 662 1035.25Z" stroke="#042433" stroke-width="6.875" stroke-miterlimit="8" fill="#FFC000" fill-rule="evenodd"/>
        <path d="M959 712.5C1037.7 712.5 1101.5 816.37 1101.5 944.5 1101.5 1072.63 1037.7 1176.5 959 1176.5L959 1105.25C998.35 1105.25 1030.25 1033.28 1030.25 944.5 1030.25 855.72 998.35 783.75 959 783.75Z" stroke="#042433" stroke-width="6.875" stroke-miterlimit="8" fill="#FFC000" fill-rule="evenodd"/>
        <path d="M534 1176.5C455.3 1176.5 391.5 1072.63 391.5 944.5 391.5 816.37 455.3 712.5 534 712.5L534 783.75C494.65 783.75 462.75 855.72 462.75 944.5 462.75 1033.28 494.65 1105.25 534 1105.25Z" stroke="#042433" stroke-width="6.875" stroke-miterlimit="8" fill="#FFC000" fill-rule="evenodd"/>
        <path d="M633.5 936.5C633.5 882.928 683.868 839.5 746 839.5 808.132 839.5 858.5 882.928 858.5 936.5 858.5 990.072 808.132 1033.5 746 1033.5 683.868 1033.5 633.5 990.072 633.5 936.5Z" stroke="#042433" stroke-width="6.875" stroke-miterlimit="8" fill="#FFC000" fill-rule="evenodd"/>
    </g>
</svg>
