<svg width="351" height="637" viewBox="0 0 351 637" xmlns="http://www.w3.org/2000/svg" xmlns:xlink="http://www.w3.org/1999/xlink" xml:space="preserve" overflow="hidden">
  <g transform="translate(-526 -1061)">
    <rect x="686.5" y="1269.5" width="33" height="425" stroke="#042433" stroke-width="6.875" stroke-miterlimit="8" fill="none"/>
    <path d="M749.5 1098.5C784.294 1098.5 812.5 1139.02 812.5 1189 812.5 1238.98 784.294 1279.5 749.5 1279.5L749.5 1248C766.897 1248 781 1221.58 781 1189 781 1156.42 766.897 1130 749.5 1130Z" stroke="#042433" stroke-width="6.875" stroke-miterlimit="8" fill="#00B0F0" fill-rule="evenodd"/>
    <path d="M650.5 1280.5C615.706 1280.5 587.5 1239.76 587.5 1189.5 587.5 1139.24 615.706 1098.5 650.5 1098.5L650.5 1130C633.103 1130 619 1156.64 619 1189.5 619 1222.36 633.103 1249 650.5 1249Z" stroke="#042433" stroke-width="6.875" stroke-miterlimit="8" fill="#00B0F0" fill-rule="evenodd"/>
    <path d="M810 1064.5C845.07 1064.5 873.5 1120.24 873.5 1189 873.5 1257.76 845.07 1313.5 810 1313.5L810 1281.75C827.535 1281.75 841.75 1240.22 841.75 1189 841.75 1137.78 827.535 1096.25 810 1096.25Z" stroke="#042433" stroke-width="6.875" stroke-miterlimit="8" fill="#00B0F0" fill-rule="evenodd"/>
    <path d="M592.5 1314.5C557.706 1314.5 529.5 1258.76 529.5 1190 529.5 1121.24 557.706 1065.5 592.5 1065.5L592.5 1097C575.103 1097 561 1138.64 561 1190 561 1241.36 575.103 1283 592.5 1283Z" stroke="#042433" stroke-width="6.875" stroke-miterlimit="8" fill="#00B0F0" fill-rule="evenodd"/>
    <path d="M0 425 0 0 99 425Z" stroke="#042433" stroke-width="6.875" stroke-miterlimit="8" fill="#00B0F0" fill-rule="evenodd" transform="matrix(-1 0 0 1 685.5 1269.5)"/>
    <path d="M719.5 1694.5 719.5 1269.5 829.5 1694.5Z" stroke="#042433" stroke-width="6.875" stroke-miterlimit="8" fill="#00B0F0" fill-rule="evenodd"/>
    <path d="M651.5 1189.5C651.5 1160.78 673.662 1137.5 701 1137.5 728.338 1137.5 750.5 1160.78 750.5 1189.5 750.5 1218.22 728.338 1241.5 701 1241.5 673.662 1241.5 651.5 1218.22 651.5 1189.5Z" stroke="#042433" stroke-width="6.875" stroke-miterlimit="8" fill="#00B0F0" fill-rule="evenodd"/>
  </g>
</svg>
