<svg width="397" height="792" viewBox="0 0 397 792" xmlns="http://www.w3.org/2000/svg" xmlns:xlink="http://www.w3.org/1999/xlink" xml:space="preserve" overflow="hidden">
  <g transform="translate(-548 -906)">
    <path d="M0 529 0 0 145 529Z" stroke="#042433" stroke-width="6.875" stroke-miterlimit="8" fill="#00B0F0" fill-rule="evenodd" transform="matrix(-1 0 0 1 740.5 1165.5)"/>
    <path d="M749.5 1694.5 749.5 1165.5 894.5 1694.5Z" stroke="#042433" stroke-width="6.875" stroke-miterlimit="8" fill="#00B0F0" fill-rule="evenodd"/>
    <path d="M795 945.5C838.354 945.5 873.5 996.092 873.5 1058.5 873.5 1120.91 838.354 1171.5 795 1171.5L795 1132.25C816.677 1132.25 834.25 1099.23 834.25 1058.5 834.25 1017.77 816.677 984.75 795 984.75Z" stroke="#042433" stroke-width="6.875" stroke-miterlimit="8" fill="#00B0F0" fill-rule="evenodd"/>
    <path d="M700 1171.5C656.646 1171.5 621.5 1120.91 621.5 1058.5 621.5 996.092 656.646 945.5 700 945.5L700 984.75C678.323 984.75 660.75 1017.77 660.75 1058.5 660.75 1099.23 678.323 1132.25 700 1132.25Z" stroke="#042433" stroke-width="6.875" stroke-miterlimit="8" fill="#00B0F0" fill-rule="evenodd"/>
    <path d="M863 909.5C906.354 909.5 941.5 978.672 941.5 1064 941.5 1149.33 906.354 1218.5 863 1218.5L863 1179.25C884.677 1179.25 902.25 1127.65 902.25 1064 902.25 1000.35 884.677 948.75 863 948.75Z" stroke="#042433" stroke-width="6.875" stroke-miterlimit="8" fill="#00B0F0" fill-rule="evenodd"/>
    <path d="M629.5 1218.5C586.422 1218.5 551.5 1149.33 551.5 1064 551.5 978.672 586.422 909.5 629.5 909.5L629.5 948.5C607.961 948.5 590.5 1000.21 590.5 1064 590.5 1127.79 607.961 1179.5 629.5 1179.5Z" stroke="#042433" stroke-width="6.875" stroke-miterlimit="8" fill="#00B0F0" fill-rule="evenodd"/>
    <path d="M684.5 1058.5C684.5 1022.6 712.034 993.5 746 993.5 779.965 993.5 807.5 1022.6 807.5 1058.5 807.5 1094.4 779.965 1123.5 746 1123.5 712.034 1123.5 684.5 1094.4 684.5 1058.5Z" stroke="#042433" stroke-width="6.875" stroke-miterlimit="8" fill="#00B0F0" fill-rule="evenodd"/>
  </g>
</svg>
