<svg width="398" height="792" viewBox="0 0 398 792" xmlns="http://www.w3.org/2000/svg" xmlns:xlink="http://www.w3.org/1999/xlink" xml:space="preserve" overflow="hidden">
  <g transform="translate(-1093 -906)">
    <path d="M0 529 0 0 146 529Z" stroke="#042433" stroke-width="6.875" stroke-miterlimit="8" fill="#FF0000" fill-rule="evenodd" transform="matrix(-1 0 0 1 1286.5 1165.5)"/>
    <path d="M1294.5 1694.5 1294.5 1165.5 1439.5 1694.5Z" stroke="#042433" stroke-width="6.875" stroke-miterlimit="8" fill="#FF0000" fill-rule="evenodd"/>
    <path d="M1340 945.5C1383.35 945.5 1418.5 996.092 1418.5 1058.5 1418.5 1120.91 1383.35 1171.5 1340 1171.5L1340 1132.25C1361.68 1132.25 1379.25 1099.23 1379.25 1058.5 1379.25 1017.77 1361.68 984.75 1340 984.75Z" stroke="#042433" stroke-width="6.875" stroke-miterlimit="8" fill="#FF0000" fill-rule="evenodd"/>
    <path d="M1245 1171.5C1201.65 1171.5 1166.5 1120.91 1166.5 1058.5 1166.5 996.092 1201.65 945.5 1245 945.5L1245 984.75C1223.32 984.75 1205.75 1017.77 1205.75 1058.5 1205.75 1099.23 1223.32 1132.25 1245 1132.25Z" stroke="#042433" stroke-width="6.875" stroke-miterlimit="8" fill="#FF0000" fill-rule="evenodd"/>
    <path d="M1409 909.5C1452.35 909.5 1487.5 978.672 1487.5 1064 1487.5 1149.33 1452.35 1218.5 1409 1218.5L1409 1179.25C1430.68 1179.25 1448.25 1127.65 1448.25 1064 1448.25 1000.35 1430.68 948.75 1409 948.75Z" stroke="#042433" stroke-width="6.875" stroke-miterlimit="8" fill="#FF0000" fill-rule="evenodd"/>
    <path d="M1175 1218.5C1131.65 1218.5 1096.5 1149.33 1096.5 1064 1096.5 978.672 1131.65 909.5 1175 909.5L1175 948.75C1153.32 948.75 1135.75 1000.35 1135.75 1064 1135.75 1127.65 1153.32 1179.25 1175 1179.25Z" stroke="#042433" stroke-width="6.875" stroke-miterlimit="8" fill="#FF0000" fill-rule="evenodd"/>
    <path d="M1229.5 1058.5C1229.5 1022.6 1257.26 993.5 1291.5 993.5 1325.74 993.5 1353.5 1022.6 1353.5 1058.5 1353.5 1094.4 1325.74 1123.5 1291.5 1123.5 1257.26 1123.5 1229.5 1094.4 1229.5 1058.5Z" stroke="#042433" stroke-width="6.875" stroke-miterlimit="8" fill="#FF0000" fill-rule="evenodd"/>
  </g>
</svg>
