<svg width="351" height="705" xmlns="http://www.w3.org/2000/svg" xmlns:xlink="http://www.w3.org/1999/xlink" xml:space="preserve" overflow="hidden"><defs><linearGradient x1="282.242" y1="157.715" x2="508.8" y2="723.653" gradientUnits="userSpaceOnUse" spreadMethod="pad" id="fill0"><stop offset="0" stop-color="#FF8080"/><stop offset="1" stop-color="#00FFFF"/></linearGradient><linearGradient x1="390.745" y1="408.391" x2="840.193" y2="336.846" gradientUnits="userSpaceOnUse" spreadMethod="pad" id="fill1"><stop offset="0" stop-color="#4D4D4D"/><stop offset="1" stop-color="#1A1A1A"/></linearGradient></defs><g transform="translate(-610 -13)"><path d="M502.814 73.1874C532.457 73.1874 556.488 100.948 556.488 135.192L556.488 715.994C556.488 750.238 532.457 777.999 502.814 777.999L259.48 777.999C229.837 777.999 205.806 750.238 205.806 715.994L205.806 135.192C205.806 100.948 229.837 73.1874 259.48 73.1874Z" fill="#FF00FF" transform="matrix(1.0009 0 0 1 404.008 -60.0931)"/><path d="M486.741 88.193C512.955 88.193 534.206 103.874 534.206 123.218L534.206 722.386C534.206 741.73 512.955 757.411 486.741 757.411L274.557 757.411C248.343 757.411 227.092 741.73 227.092 722.386L227.092 123.218C227.092 103.874 248.343 88.193 274.557 88.193Z" fill="url(#fill0)" transform="matrix(1.0009 0 0 1 404.008 -60.0931)"/><path d="M224.087 127.465C224.087 127.465 225.384 108.332 239.977 99.5761 254.571 90.8201 288.297 93.0902 292.189 94.7117 296.08 96.3331 291.965 105.587 300.62 112.872 307.324 118.514 311.971 118.709 317.159 118.385 325.591 118.385 451.093 118.385 451.093 118.385 451.093 118.385 458.551 117.737 463.092 108.981 467.369 100.732 464.064 97.9546 468.929 95.036 473.793 92.1173 530.545 87.9015 532.815 118.709 535.085 149.517 537.031 145.626 537.031 145.626L533.557 87.5444 477.036 80.767 241.599 85.3071 220.52 112.224Z" transform="matrix(1.0009 0 0 1 404.008 -60.0931)"/><path d="M262.63 77.7728C233.664 77.7728 210.346 105.092 210.346 139.028L210.346 712.807C210.346 746.742 233.664 774.062 262.63 774.062L499.664 774.062C528.63 774.062 551.948 746.742 551.948 712.807L551.948 139.028C551.948 105.092 528.63 77.7728 499.664 77.7728ZM276.686 91.9555 483.375 91.9555C508.989 91.9555 529.611 107.387 529.611 126.557L529.611 718.482C529.611 737.651 508.989 753.083 483.375 753.083L276.686 753.083C251.071 753.083 230.449 737.651 230.449 718.482L230.449 126.557C230.449 107.387 251.071 91.9555 276.686 91.9555Z" transform="matrix(1.0009 0 0 1 404.008 -60.0931)"/><path d="M259.48 73.188C229.744 73.188 205.805 100.842 205.805 135.193L205.805 715.994C205.805 750.344 229.744 777.998 259.48 777.998L502.814 777.998C532.55 777.998 556.488 750.344 556.488 715.994L556.488 135.193C556.488 100.842 532.55 73.188 502.814 73.188ZM273.909 87.5444 486.092 87.5444C512.387 87.5444 533.557 103.165 533.557 122.569L533.557 721.738C533.557 741.142 512.387 756.762 486.092 756.762L273.909 756.762C247.613 756.762 226.443 741.142 226.443 721.738L226.443 122.569C226.443 103.165 247.613 87.5444 273.909 87.5444Z" fill="url(#fill1)" transform="matrix(1.0009 0 0 1 404.008 -60.0931)"/><path d="M421.931 101.688C421.931 104.031 419.98 105.93 417.574 105.93 415.168 105.93 413.217 104.031 413.217 101.688 413.217 99.345 415.168 97.4457 417.574 97.4457 419.98 97.4457 421.931 99.345 421.931 101.688Z" stroke="#4E4E4E" stroke-width="2.05914" stroke-linecap="round" stroke-linejoin="round" transform="matrix(1.0009 0 0 1 404.008 -60.0931)"/><path d="M362.309 101.344C363.147 101.803 398.314 101.344 398.314 101.344" stroke="#3A3A3A" stroke-width="5.71411" stroke-linecap="round" fill="none" transform="matrix(1.0009 0 0 1 404.008 -60.0931)"/></g></svg>