<svg width="901" height="1804" viewBox="0 0 2522 2813" xmlns="http://www.w3.org/2000/svg" xmlns:xlink="http://www.w3.org/1999/xlink" xml:space="preserve" overflow="hidden"><g transform="translate(-1573 -56)"><path d="M0 1211 0 0 333 1211Z" stroke="#042433" stroke-width="6.875" stroke-miterlimit="8" fill="#31A93F" fill-rule="evenodd" transform="matrix(-1 0 0 1 2010.5 645.5)"/><path d="M2029.5 1856.5 2029.5 645.5 2361.5 1856.5Z" stroke="#042433" stroke-width="6.875" stroke-miterlimit="8" fill="#31A93F" fill-rule="evenodd"/><path d="M2134 142.5C2233.14 142.5 2313.5 258.235 2313.5 401 2313.5 543.766 2233.14 659.5 2134 659.5L2134 569.751C2183.57 569.751 2223.75 494.198 2223.75 401 2223.75 307.802 2183.57 232.25 2134 232.25Z" stroke="#042433" stroke-width="6.875" stroke-miterlimit="8" fill="#31A93F" fill-rule="evenodd"/><path d="M1916 659.5C1816.86 659.5 1736.5 543.766 1736.5 401 1736.5 258.235 1816.86 142.5 1916 142.5L1916 232.25C1866.43 232.25 1826.25 307.802 1826.25 401 1826.25 494.198 1866.43 569.751 1916 569.751Z" stroke="#042433" stroke-width="6.875" stroke-miterlimit="8" fill="#31A93F" fill-rule="evenodd"/><path d="M2291 59.4998C2390.14 59.4998 2470.5 217.767 2470.5 413 2470.5 608.233 2390.14 766.5 2291 766.5L2291 676.75C2340.57 676.75 2380.75 558.665 2380.75 413 2380.75 267.335 2340.57 149.25 2291 149.25Z" stroke="#042433" stroke-width="6.875" stroke-miterlimit="8" fill="#31A93F" fill-rule="evenodd"/><path d="M1756 766.5C1656.86 766.5 1576.5 608.233 1576.5 413 1576.5 217.767 1656.86 59.5 1756 59.5L1756 149.25C1706.43 149.25 1666.25 267.335 1666.25 413 1666.25 558.665 1706.43 676.75 1756 676.75Z" stroke="#042433" stroke-width="6.875" stroke-miterlimit="8" fill="#31A93F" fill-rule="evenodd"/><path d="M1881.5 401C1881.5 319.538 1944.63 253.5 2022.5 253.5 2100.37 253.5 2163.5 319.538 2163.5 401 2163.5 482.462 2100.37 548.5 2022.5 548.5 1944.63 548.5 1881.5 482.462 1881.5 401Z" stroke="#042433" stroke-width="6.875" stroke-miterlimit="8" fill="#31A93F" fill-rule="evenodd"/></g></svg>