<svg width="172" height="411" viewBox="0 0 296 430" xmlns="http://www.w3.org/2000/svg" xmlns:xlink="http://www.w3.org/1999/xlink" xml:space="preserve" overflow="hidden"><g transform="translate(-407 -203)"><path d="M531 330 493 614 455 330Z" fill="#FFFF00" fill-rule="evenodd"/><path d="M407 285.5C407 239.937 445.503 203 493 203 540.496 203 579 239.937 579 285.5 579 331.064 540.496 368 493 368 445.503 368 407 331.064 407 285.5Z" fill="#FFFF00" fill-rule="evenodd"/><path d="M461 286C461 267.222 475.327 252 493 252 510.673 252 525 267.222 525 286 525 304.778 510.673 320 493 320 475.327 320 461 304.778 461 286Z" fill="#FFFFFF" fill-rule="evenodd"/></g></svg>